<?xml version="1.0" standalone="no"?>
<svg xmlns:xlink="http://www.w3.org/1999/xlink" id="wave" style="transform:rotate(180deg); transition: 0.3s"
    viewBox="0 0 1440 220" version="1.1" xmlns="http://www.w3.org/2000/svg">
    <defs>
        <linearGradient id="sw-gradient-0" x1="0" x2="0" y1="1" y2="0">
            <stop stop-color="rgba(193, 0, 42, 1)" offset="0%" />
            <stop stop-color="rgba(193, 0 ,42, 1)" offset="100%" />
        </linearGradient>
    </defs>
    <path style="transform:translate(0, 0px); opacity:1" fill="url(#sw-gradient-0)"
        d="M0,198L120,190.7C240,183,480,169,720,161.3C960,154,1200,154,1440,128.3C1680,103,1920,51,2160,25.7C2400,0,2640,0,2880,7.3C3120,15,3360,29,3600,47.7C3840,66,4080,88,4320,110C4560,132,4800,154,5040,161.3C5280,169,5520,161,5760,132C6000,103,6240,51,6480,44C6720,37,6960,73,7200,80.7C7440,88,7680,66,7920,69.7C8160,73,8400,103,8640,95.3C8880,88,9120,44,9360,29.3C9600,15,9840,29,10080,47.7C10320,66,10560,88,10800,99C11040,110,11280,110,11520,95.3C11760,81,12000,51,12240,40.3C12480,29,12720,37,12960,40.3C13200,44,13440,44,13680,62.3C13920,81,14160,117,14400,110C14640,103,14880,51,15120,40.3C15360,29,15600,59,15840,66C16080,73,16320,59,16560,73.3C16800,88,17040,132,17160,154L17280,176L17280,220L17160,220C17040,220,16800,220,16560,220C16320,220,16080,220,15840,220C15600,220,15360,220,15120,220C14880,220,14640,220,14400,220C14160,220,13920,220,13680,220C13440,220,13200,220,12960,220C12720,220,12480,220,12240,220C12000,220,11760,220,11520,220C11280,220,11040,220,10800,220C10560,220,10320,220,10080,220C9840,220,9600,220,9360,220C9120,220,8880,220,8640,220C8400,220,8160,220,7920,220C7680,220,7440,220,7200,220C6960,220,6720,220,6480,220C6240,220,6000,220,5760,220C5520,220,5280,220,5040,220C4800,220,4560,220,4320,220C4080,220,3840,220,3600,220C3360,220,3120,220,2880,220C2640,220,2400,220,2160,220C1920,220,1680,220,1440,220C1200,220,960,220,720,220C480,220,240,220,120,220L0,220Z" />
</svg>